<svg width="400" height="57" viewBox="0 0 400 57" fill="none" xmlns="http://www.w3.org/2000/svg">
<path d="M35.0822 8.12109H7.21996C5.1286 8.12109 3.39025 9.73213 3.2315 11.8175L0.843302 43.1873C0.558779 46.9246 5.10934 48.9656 7.71109 46.2676L37.9616 14.8977C40.411 12.3576 38.6109 8.12109 35.0822 8.12109Z" fill="#FF8A00"/>
<path d="M382.822 10.032H398.904V46.1212H382.822V44.4926C382.822 44.232 382.571 44.232 382.508 44.232C382.445 44.232 382.383 44.232 382.32 44.2971C380.372 46.3166 378.174 47.2937 375.661 47.2937C368.437 47.2937 363.16 39.1509 363.16 28.4023C363.16 17.9794 369.128 9.51086 376.478 9.51086H376.54C378.739 9.51086 380.686 10.2926 382.32 11.856C382.383 11.9211 382.445 11.9212 382.508 11.9212C382.571 11.9212 382.822 11.856 382.822 11.5954V10.032ZM382.822 34.8514V21.888C382.822 21.1714 382.257 20.6503 381.566 20.6503C380.875 20.6503 380.372 21.1714 380.372 21.888V34.8514C380.372 35.568 380.875 36.0891 381.566 36.0891C382.257 36.0891 382.822 35.568 382.822 34.8514Z" fill="#FF8A00"/>
<path d="M352.004 31.7246L343.273 32.9623C342.519 33.0274 342.267 33.744 342.267 34.2C342.267 34.3303 342.33 35.4377 343.398 35.4377C343.461 35.4377 343.524 35.4377 343.587 35.4377L361.05 32.8971V46.1211H336.928C331.149 46.1211 326.5 41.3006 326.5 35.3074C326.5 29.9006 330.395 25.1451 335.546 24.4286L344.466 23.1257C345.283 23.0606 345.471 22.4091 345.471 21.9531C345.471 21.8228 345.345 20.6503 344.466 20.6503C344.34 20.6503 344.278 20.7154 344.152 20.7154L326.5 23.256V10.032H350.622C356.402 10.032 361.05 14.9177 361.05 20.9108C361.05 26.3177 357.155 30.8777 352.004 31.7246Z" fill="#FF8A00"/>
<path d="M314.277 31.7246L305.545 32.9623C304.791 33.0274 304.54 33.744 304.54 34.2C304.54 34.3303 304.603 35.4377 305.671 35.4377C305.733 35.4377 305.796 35.4377 305.859 35.4377L323.323 32.8971V46.1211H299.2C293.421 46.1211 288.772 41.3006 288.772 35.3074C288.772 29.9006 292.667 25.1451 297.818 24.4286L306.739 23.1257C307.555 23.0606 307.744 22.4091 307.744 21.9531C307.744 21.8228 307.618 20.6503 306.739 20.6503C306.613 20.6503 306.55 20.7154 306.424 20.7154L288.772 23.256V10.032H312.895C318.674 10.032 323.323 14.9177 323.323 20.9108C323.323 26.3177 319.428 30.8777 314.277 31.7246Z" fill="#FF8A00"/>
<path d="M285.466 9.70628C285.152 11.9863 283.958 13.8754 282.262 15.1131C280.566 16.3509 278.87 16.7417 277.551 16.7417C277.111 16.7417 276.734 16.6766 276.294 16.6114C274.096 16.1554 272.274 14.9829 271.08 13.224C269.824 11.4651 269.51 9.70628 269.51 8.40342C269.51 7.94742 269.573 7.49142 269.635 7.03543C269.95 4.75542 271.143 2.86628 272.839 1.56343C274.535 0.325714 276.231 0 277.488 0C277.927 0 278.367 0.065142 278.87 0.130284C281.068 0.455998 282.89 1.69371 284.084 3.45257C285.277 5.21143 285.591 6.97029 285.591 8.27314C285.591 8.72914 285.528 9.18514 285.466 9.70628ZM285.591 46.1211H269.51V19.2171H285.591V46.1211Z" fill="#FF8A00"/>
<path d="M255.147 9.51086C262.371 9.51086 267.648 17.6537 267.648 28.4023C267.648 38.76 261.68 47.2937 254.268 47.2937C252.069 47.2937 250.184 46.512 248.488 44.8834C248.426 44.8183 248.363 44.8183 248.3 44.8183C248.237 44.8183 247.986 44.8834 247.986 45.144V56.9349H231.904V10.032H247.986V12.2469C247.986 12.5074 248.237 12.5074 248.3 12.5074C248.363 12.5074 248.426 12.5074 248.488 12.4423C250.373 10.488 252.572 9.51086 255.147 9.51086ZM250.436 34.8514V21.888C250.436 21.1714 249.87 20.6503 249.179 20.6503C248.488 20.6503 247.986 21.1714 247.986 21.888V34.8514C247.986 35.568 248.488 36.0892 249.179 36.0892C249.87 36.0892 250.436 35.568 250.436 34.8514Z" fill="#FF8A00"/>
<path d="M196.353 9.51086H196.416C206.467 9.51086 214.633 17.9794 214.633 28.4023C214.633 38.76 206.341 47.2937 196.353 47.2937C186.302 47.2937 178.136 38.76 178.136 28.4023C178.136 17.9794 186.302 9.51086 196.353 9.51086ZM197.609 34.8514V21.888C197.609 21.1714 197.107 20.6503 196.416 20.6503C195.725 20.6503 195.222 21.1714 195.222 21.888V34.8514C195.222 35.568 195.725 36.0891 196.416 36.0891C197.107 36.0891 197.609 35.568 197.609 34.8514Z" fill="#FF8A00"/>
<path d="M160.197 10.032H176.279V39.9977C176.279 52.6354 169.997 56.9349 159.883 56.9349H155.863V48.4663H159.883C160.072 48.4663 160.197 48.4012 160.197 48.2057V44.4926C160.197 44.232 159.946 44.232 159.883 44.232C159.82 44.232 159.758 44.232 159.695 44.2972C157.747 46.3166 155.549 47.2937 153.036 47.2937C145.812 47.2937 140.535 39.1509 140.535 28.4023C140.535 17.9794 146.503 9.51086 153.853 9.51086H153.915C156.114 9.51086 158.061 10.2926 159.695 11.856C159.758 11.9212 159.82 11.9212 159.883 11.9212C159.946 11.9212 160.197 11.856 160.197 11.5954V10.032ZM160.197 34.8514V21.888C160.197 21.1714 159.632 20.6503 158.941 20.6503C158.25 20.6503 157.747 21.1714 157.747 21.888V34.8514C157.747 35.568 158.25 36.0892 158.941 36.0892C159.632 36.0892 160.197 35.568 160.197 34.8514Z" fill="#FF8A00"/>
<path d="M106.052 9.51086H106.115C116.166 9.51086 124.332 17.9794 124.332 28.4023C124.332 38.76 116.04 47.2937 106.052 47.2937C96.0009 47.2937 87.8345 38.76 87.8345 28.4023C87.8345 17.9794 96.0009 9.51086 106.052 9.51086ZM107.308 34.8514V21.888C107.308 21.1714 106.806 20.6503 106.115 20.6503C105.424 20.6503 104.921 21.1714 104.921 21.888V34.8514C104.921 35.568 105.424 36.0891 106.115 36.0891C106.806 36.0891 107.308 35.568 107.308 34.8514Z" fill="#FF8A00"/>
<path d="M69.896 10.032H85.9775V39.9977C85.9775 52.6354 79.6957 56.9349 69.5819 56.9349H65.5616V48.4663H69.5819C69.7704 48.4663 69.896 48.4012 69.896 48.2057V44.4926C69.896 44.232 69.6448 44.232 69.5819 44.232C69.5191 44.232 69.4563 44.232 69.3935 44.2972C67.4461 46.3166 65.2475 47.2937 62.7347 47.2937C55.5106 47.2937 50.2339 39.1509 50.2339 28.4023C50.2339 17.9794 56.2016 9.51086 63.5514 9.51086H63.6142C65.8128 9.51086 67.7602 10.2926 69.3935 11.856C69.4563 11.9212 69.5191 11.9212 69.5819 11.9212C69.6448 11.9212 69.896 11.856 69.896 11.5954V10.032ZM69.896 34.8514V21.888C69.896 21.1714 69.3307 20.6503 68.6397 20.6503C67.9487 20.6503 67.4461 21.1714 67.4461 21.888V34.8514C67.4461 35.568 67.9487 36.0892 68.6397 36.0892C69.3307 36.0892 69.896 35.568 69.896 34.8514Z" fill="#FF8A00"/>
</svg>
