<svg width="164" height="23" viewBox="0 0 164 23" fill="none" xmlns="http://www.w3.org/2000/svg">
<path d="M13.9597 3.27695H3.10632C2.16605 3.27695 1.3842 4.00065 1.31168 4.93812L0.381397 16.9643C0.25178 18.6399 2.28553 19.5633 3.46173 18.3629L15.2454 6.33671C16.3615 5.19758 15.5545 3.27695 13.9597 3.27695Z" fill="#2C2826"/>
<path d="M156.957 4.04799H163.55V18.6103H156.957V17.9531C156.957 17.848 156.854 17.848 156.828 17.848C156.802 17.848 156.777 17.848 156.751 17.8743C155.953 18.6891 155.051 19.0834 154.021 19.0834C151.059 19.0834 148.896 15.7977 148.896 11.4606C148.896 7.25485 151.342 3.83771 154.356 3.83771H154.381C155.283 3.83771 156.081 4.15314 156.751 4.78399C156.777 4.81028 156.802 4.81028 156.828 4.81028C156.854 4.81028 156.957 4.78399 156.957 4.67885V4.04799ZM156.957 14.0629V8.83199C156.957 8.54285 156.725 8.33256 156.442 8.33256C156.159 8.33256 155.953 8.54285 155.953 8.83199V14.0629C155.953 14.352 156.159 14.5623 156.442 14.5623C156.725 14.5623 156.957 14.352 156.957 14.0629Z" fill="#2C2826"/>
<path d="M144.321 12.8011L140.741 13.3006C140.432 13.3269 140.329 13.616 140.329 13.8C140.329 13.8526 140.355 14.2994 140.793 14.2994C140.819 14.2994 140.844 14.2994 140.87 14.2994L148.03 13.2743V18.6103H138.14C135.771 18.6103 133.865 16.6651 133.865 14.2469C133.865 12.0651 135.462 10.1463 137.574 9.85715L141.231 9.33143C141.566 9.30515 141.643 9.04229 141.643 8.85829C141.643 8.80572 141.591 8.33258 141.231 8.33258C141.179 8.33258 141.154 8.35886 141.102 8.35886L133.865 9.38401V4.048H143.755C146.124 4.048 148.03 6.01943 148.03 8.43772C148.03 10.6194 146.433 12.4594 144.321 12.8011Z" fill="#2C2826"/>
<path d="M128.853 12.8011L125.273 13.3006C124.964 13.3269 124.861 13.616 124.861 13.8C124.861 13.8526 124.887 14.2994 125.325 14.2994C125.35 14.2994 125.376 14.2994 125.402 14.2994L132.562 13.2743V18.6103H122.672C120.302 18.6103 118.396 16.6651 118.396 14.2469C118.396 12.0651 119.993 10.1463 122.105 9.85715L125.763 9.33143C126.097 9.30515 126.175 9.04229 126.175 8.85829C126.175 8.80572 126.123 8.33258 125.763 8.33258C125.711 8.33258 125.685 8.35886 125.634 8.35886L118.396 9.38401V4.048H128.287C130.656 4.048 132.562 6.01943 132.562 8.43772C132.562 10.6194 130.965 12.4594 128.853 12.8011Z" fill="#2C2826"/>
<path d="M117.04 3.91657C116.912 4.83657 116.422 5.59886 115.727 6.09829C115.032 6.59771 114.336 6.75543 113.795 6.75543C113.615 6.75543 113.46 6.72914 113.28 6.70286C112.379 6.51886 111.632 6.04571 111.142 5.336C110.627 4.62629 110.499 3.91657 110.499 3.39085C110.499 3.20686 110.524 3.02286 110.55 2.83886C110.679 1.91886 111.168 1.15657 111.864 0.630857C112.559 0.131428 113.254 0 113.769 0C113.95 0 114.13 0.0262854 114.336 0.0525707C115.238 0.183999 115.984 0.683427 116.474 1.39314C116.963 2.10286 117.092 2.81257 117.092 3.33829C117.092 3.52229 117.066 3.70628 117.04 3.91657ZM117.092 18.6103H110.499V7.75428H117.092V18.6103Z" fill="#2C2826"/>
<path d="M104.61 3.83771C107.572 3.83771 109.735 7.12342 109.735 11.4606C109.735 15.64 107.289 19.0834 104.25 19.0834C103.348 19.0834 102.575 18.768 101.88 18.1109C101.854 18.0846 101.829 18.0846 101.803 18.0846C101.777 18.0846 101.674 18.1109 101.674 18.216V22.9737H95.0806V4.04799H101.674V4.94171C101.674 5.04685 101.777 5.04685 101.803 5.04685C101.829 5.04685 101.854 5.04685 101.88 5.02056C102.653 4.23199 103.554 3.83771 104.61 3.83771ZM102.678 14.0629V8.83199C102.678 8.54285 102.447 8.33257 102.163 8.33257C101.88 8.33257 101.674 8.54285 101.674 8.83199V14.0629C101.674 14.352 101.88 14.5623 102.163 14.5623C102.447 14.5623 102.678 14.352 102.678 14.0629Z" fill="#2C2826"/>
<path d="M80.5047 3.83771H80.5305C84.6514 3.83771 87.9996 7.25485 87.9996 11.4606C87.9996 15.64 84.5999 19.0834 80.5047 19.0834C76.3839 19.0834 73.0356 15.64 73.0356 11.4606C73.0356 7.25485 76.3839 3.83771 80.5047 3.83771ZM81.0199 14.0629V8.83199C81.0199 8.54285 80.8138 8.33256 80.5305 8.33256C80.2472 8.33256 80.0411 8.54285 80.0411 8.83199V14.0629C80.0411 14.352 80.2472 14.5623 80.5305 14.5623C80.8138 14.5623 81.0199 14.352 81.0199 14.0629Z" fill="#2C2826"/>
<path d="M65.6806 4.04799H72.274V16.1394C72.274 21.2389 69.6985 22.9737 65.5518 22.9737H63.9035V19.5566H65.5518C65.6291 19.5566 65.6806 19.5303 65.6806 19.4514V17.9531C65.6806 17.848 65.5776 17.848 65.5518 17.848C65.5261 17.848 65.5003 17.848 65.4746 17.8743C64.6762 18.6891 63.7747 19.0834 62.7445 19.0834C59.7826 19.0834 57.6191 15.7977 57.6191 11.4606C57.6191 7.25485 60.0659 3.83771 63.0793 3.83771H63.1051C64.0065 3.83771 64.8049 4.15314 65.4746 4.78399C65.5003 4.81028 65.5261 4.81028 65.5518 4.81028C65.5776 4.81028 65.6806 4.78399 65.6806 4.67885V4.04799ZM65.6806 14.0629V8.83199C65.6806 8.54285 65.4488 8.33257 65.1655 8.33257C64.8822 8.33257 64.6762 8.54285 64.6762 8.83199V14.0629C64.6762 14.352 64.8822 14.5623 65.1655 14.5623C65.4488 14.5623 65.6806 14.352 65.6806 14.0629Z" fill="#2C2826"/>
<path d="M43.4813 3.83771H43.5071C47.6279 3.83771 50.9762 7.25485 50.9762 11.4606C50.9762 15.64 47.5764 19.0834 43.4813 19.0834C39.3604 19.0834 36.0122 15.64 36.0122 11.4606C36.0122 7.25485 39.3604 3.83771 43.4813 3.83771ZM43.9964 14.0629V8.83199C43.9964 8.54285 43.7904 8.33256 43.5071 8.33256C43.2238 8.33256 43.0177 8.54285 43.0177 8.83199V14.0629C43.0177 14.352 43.2238 14.5623 43.5071 14.5623C43.7904 14.5623 43.9964 14.352 43.9964 14.0629Z" fill="#2C2826"/>
<path d="M28.6572 4.04799H35.2506V16.1394C35.2506 21.2389 32.675 22.9737 28.5284 22.9737H26.8801V19.5566H28.5284C28.6057 19.5566 28.6572 19.5303 28.6572 19.4514V17.9531C28.6572 17.848 28.5542 17.848 28.5284 17.848C28.5026 17.848 28.4769 17.848 28.4511 17.8743C27.6527 18.6891 26.7513 19.0834 25.7211 19.0834C22.7592 19.0834 20.5957 15.7977 20.5957 11.4606C20.5957 7.25485 23.0425 3.83771 26.0559 3.83771H26.0816C26.9831 3.83771 27.7815 4.15314 28.4511 4.78399C28.4769 4.81028 28.5026 4.81028 28.5284 4.81028C28.5542 4.81028 28.6572 4.78399 28.6572 4.67885V4.04799ZM28.6572 14.0629V8.83199C28.6572 8.54285 28.4254 8.33257 28.1421 8.33257C27.8588 8.33257 27.6527 8.54285 27.6527 8.83199V14.0629C27.6527 14.352 27.8588 14.5623 28.1421 14.5623C28.4254 14.5623 28.6572 14.352 28.6572 14.0629Z" fill="#2C2826"/>
</svg>
